<svg xmlns="http://www.w3.org/2000/svg" width="230" height="60" viewBox="0 0 230 60"><path fill="#216be9" d="M0 9.475C0 4.242 4.169 0 9.31 0h41.38C55.831 0 60 4.242 60 9.475v41.05C60 55.758 55.831 60 50.69 60H9.31C4.169 60 0 55.758 0 50.525z"/><path fill="#fff" d="M31.07 30.266a9.31 9.31 0 1 0 18.619 0 9.31 9.31 0 0 0-18.62 0"/><path fill="#216be9" d="M31.066 30.265a9.31 9.31 0 0 1 9.07-9.307l.24-.003a9.31 9.31 0 0 1 .24 18.616l-.24.003a9.31 9.31 0 0 1-9.306-9.069zm-2.315 0c0 6.42 5.204 11.625 11.625 11.625C46.796 41.89 52 36.685 52 30.265S46.796 18.64 40.376 18.64 28.75 23.844 28.75 30.265"/><path fill="#fff" d="M20.962 40.372a9.31 9.31 0 1 0 18.62 0 9.31 9.31 0 1 0-18.62 0"/><path fill="#216be9" d="M20.958 40.375a9.31 9.31 0 0 1 9.07-9.306l.24-.003a9.31 9.31 0 0 1 .24 18.616l-.24.002a9.31 9.31 0 0 1-9.307-9.069zm-2.316 0c0 6.42 5.205 11.625 11.625 11.625s11.626-5.205 11.626-11.625S36.688 28.75 30.267 28.75s-11.625 5.205-11.625 11.625"/><path fill="#fff" d="M10.316 30.266a9.31 9.31 0 1 0 18.619 0 9.31 9.31 0 0 0-18.62 0"/><path fill="#216be9" d="M10.318 30.265a9.31 9.31 0 0 1 9.07-9.307l.24-.003a9.31 9.31 0 0 1 .24 18.616l-.24.003a9.31 9.31 0 0 1-9.306-9.069zm-2.316 0c0 6.42 5.205 11.625 11.626 11.625s11.625-5.205 11.625-11.625S26.048 18.64 19.628 18.64 8.002 23.844 8.002 30.265"/><path fill="#fff" d="M20.962 19.627a9.31 9.31 0 1 0 18.619 0 9.31 9.31 0 0 0-18.619 0"/><path fill="#216be9" d="M20.958 19.625a9.31 9.31 0 0 1 9.07-9.306l.24-.003a9.31 9.31 0 0 1 .24 18.616l-.24.003a9.31 9.31 0 0 1-9.307-9.07zm-2.316 0c0 6.42 5.205 11.625 11.625 11.625s11.626-5.205 11.626-11.625S36.688 8 30.267 8s-11.625 5.205-11.625 11.625"/><path fill="#fff" d="M162.168 21.8q3.438 0 5.588 1.667a6.4 6.4 0 0 1 2.244 3.1V22.29h7.02v23.914q0 5.39-3.486 8.477-3.486 3.136-9.551 3.136-5.062 0-8.262-2.205-3.151-2.205-3.724-5.978h6.781q.382.93 1.624 1.42 1.288.492 3.247.491 3.247 0 4.728-1.274t1.48-3.97v-3.964q-.704 1.797-2.388 2.984-2.292 1.569-5.683 1.569-3.247 0-5.683-1.52-2.387-1.568-3.724-4.361t-1.338-6.566q0-3.823 1.385-6.665t3.869-4.41q2.53-1.568 5.873-1.568m54.717 15.81 5.474-15.32H230l-14.756 35.038h-7.163l4.916-11.165-9.119-23.872h7.736zM133.918 21.8q4.059 0 7.068 1.618 3.055 1.616 4.728 4.508 1.671 2.892 1.671 6.763t-1.719 6.86q-1.671 2.94-4.728 4.607-3.008 1.617-7.02 1.617t-7.067-1.617a12.25 12.25 0 0 1-4.728-4.607q-1.672-2.99-1.671-6.86t1.671-6.763q1.719-2.89 4.728-4.508 3.056-1.617 7.067-1.617m58.141 0q4.824 0 7.689 2.01 2.865 1.96 3.152 5.488h-6.399q-.191-1.274-1.337-1.91-1.146-.687-3.248-.687-1.91 0-2.865.588-.908.54-.908 1.568 0 .882.765 1.422.764.49 2.531.881l4.393.931q3.678.785 5.54 2.94 1.91 2.108 1.91 5 0 3.674-2.818 5.733-2.77 2.009-7.879 2.009-5.35 0-8.501-2.206t-3.438-6.076h6.399q.239 1.666 1.624 2.548 1.432.834 3.916.833 2.245 0 3.247-.637 1.05-.686 1.051-1.91 0-.932-.621-1.422-.573-.54-2.149-.882l-3.916-.833q-4.345-.93-6.399-2.793-2.054-1.912-2.054-4.9 0-3.627 2.722-5.636 2.723-2.058 7.593-2.058M93.998 12q4.584 0 7.402 2.402 2.817 2.4 2.817 6.517 0 2.597-1.194 4.46a7.8 7.8 0 0 1-3.2 2.841q-.506.249-1.044.433a9.3 9.3 0 0 1 1.618.694 8.87 8.87 0 0 1 3.486 3.333q1.29 2.106 1.29 4.998 0 2.891-1.338 5.096-1.289 2.157-3.677 3.332-2.34 1.177-5.54 1.176H78V12zm22.655 35.283h-7.163V12h7.163zm17.265-19.7q-2.53 0-4.298 1.863-1.719 1.86-1.719 5.194 0 2.302.812 3.969.811 1.617 2.149 2.5a5.57 5.57 0 0 0 3.056.881q1.672 0 3.009-.882 1.384-.882 2.197-2.5.811-1.665.811-3.968 0-3.381-1.767-5.195-1.719-1.861-4.25-1.862m-48.564 14.31H92.9q2.387 0 3.581-1.324 1.242-1.372 1.242-3.773 0-2.45-1.337-3.871-1.29-1.422-3.725-1.421h-7.307zm78.82-14.457q-2.484 0-4.107 1.813-1.576 1.813-1.576 5.146 0 3.332 1.576 5.096 1.623 1.764 4.203 1.764 2.53 0 4.107-1.764 1.575-1.814 1.575-5.145 0-3.332-1.623-5.097-1.577-1.812-4.155-1.813m-78.82-1.323h6.925q2.244 0 3.39-1.078 1.194-1.127 1.194-3.283t-1.146-3.235q-1.098-1.125-3.295-1.127h-7.068z"/></svg>
